<svg xmlns="http://www.w3.org/2000/svg" viewBox="0 0 128.64 20.56"><title>Asset 19</title><g id="Layer_2" data-name="Layer 2"><g id="Layer_1-2" data-name="Layer 1"><path d="M1.57,20.13a1,1,0,0,1-1-1.06l.8-12.93a1,1,0,0,0-.69-1h0a1,1,0,0,1-.69-1V3.64a1,1,0,0,1,1-1H3.93a1,1,0,0,1,1,1.06L4.64,8.47c0,.77-.16,1.81-.24,2.35A22.37,22.37,0,0,1,6.29,9.44L8.36,8.07c2.08-1.38,2.46-2.05,2.51-2.4a1.54,1.54,0,0,1-.7-1.35,2,2,0,0,1,2.05-1.86,2.28,2.28,0,0,1,2.37,2.31c0,1.6-1.13,3.13-5.17,6.1l3.4,6.19a1.12,1.12,0,0,0,1,.58h0a1.12,1.12,0,0,1,1.12,1.12v.39a1.13,1.13,0,0,1-.85,1.09,6.08,6.08,0,0,1-1.47.18,2.91,2.91,0,0,1-2.86-2l-3-6-2.4,1.56-.17,2.58a1,1,0,0,0,.69,1h0a1,1,0,0,1,.69.95v.54a1,1,0,0,1-1,1Z"/><path d="M16.86,9V8.33a.94.94,0,0,1,.94-.94h2.75a1,1,0,0,1,.94,1L21,16.69a.94.94,0,0,0,.62.95h0a.93.93,0,0,1,.63.88v.67a1,1,0,0,1-.94.94H18.51a1,1,0,0,1-.94-1l.54-8.31a1,1,0,0,0-.63-.94h0A.94.94,0,0,1,16.86,9Zm3.37-9a2.24,2.24,0,0,1,2.24,2.24,2.21,2.21,0,0,1-2.24,2.21A2.19,2.19,0,0,1,18,2.24,2.21,2.21,0,0,1,20.23,0Z"/><path d="M37.9,17.64h0a1,1,0,0,1,.65.91v.62a1,1,0,0,1-1,1H34.82a1,1,0,0,1-1-1l.4-6.23c0-.27,0-.61,0-.89,0-1.3-.27-2-1.4-2a3.74,3.74,0,0,0-.81.1,4.11,4.11,0,0,0-3,3.78l-.19,2.8a1,1,0,0,0,.65,1h0a1,1,0,0,1,.65.91v.62a1,1,0,0,1-1,1H26.43a1,1,0,0,1-1-1l.52-8a.84.84,0,0,0-.55-.84l-.29-.1a.84.84,0,0,1-.55-.79V8.23a.83.83,0,0,1,.83-.84h2.14a.85.85,0,0,1,.81.62h0a.84.84,0,0,0,1.31.45A6.92,6.92,0,0,1,33.58,7c2.84,0,4,1.73,4,4.1,0,.42,0,.94-.05,1.19l-.3,4.41A1,1,0,0,0,37.9,17.64Z"/><path d="M46.12,7.39h1.52a1.3,1.3,0,0,1,1.29,1.3h0A1.29,1.29,0,0,1,47.64,10H46.48a1.3,1.3,0,0,0-1.29,1.22l-.3,5.13a1.25,1.25,0,0,0,1,1.29l.12,0a1.24,1.24,0,0,1,1,1.22h0a1.26,1.26,0,0,1-1.25,1.26h-3a1.26,1.26,0,0,1-1.25-1.33L42,11a.92.92,0,0,0-.92-1h0a.92.92,0,0,1-.91-.92V8.52a.92.92,0,0,1,.76-.91l.62-.1a.91.91,0,0,0,.75-.83C42.71,2.5,44.61.05,47.91.05c2.32,0,3.66,1.43,3.66,2.73a1.76,1.76,0,0,1-1.78,1.94c-.91,0-1.51-.48-1.51-1.29a1,1,0,0,1,.19-.6.89.89,0,0,0-.62-.16c-1.88,0-2.32,2.66-2.42,4A.69.69,0,0,0,46.12,7.39Z"/><path d="M60.05,17.81a1.29,1.29,0,0,1-.5,1.86,8.9,8.9,0,0,1-4,.89c-3.42,0-5.85-2-5.85-6.21,0-3.56,2.48-7.39,6.47-7.39s5,2.75,5,4.29c0,3.16-3,4.15-5.67,4.15H52.9c.16,2,1.56,2.46,3.12,2.46a6,6,0,0,0,2.41-.52,1.29,1.29,0,0,1,1.62.47ZM55.4,12.92c1.84,0,2.73-.54,2.73-1.62,0-.62-.35-1.64-1.94-1.64a3.4,3.4,0,0,0-3.13,3.26Z"/><path d="M66.54,17.48a3.19,3.19,0,0,0,2,.51c1.67,0,2.19-.51,2.19-1.18,0-1-.92-1.41-2.46-1.86-2.16-.65-4.42-1.49-4.42-4.16C63.85,8.58,66.09,7,69.22,7c1.86,0,4.85,1.16,4.85,3.16a1.66,1.66,0,0,1-1.78,1.78,1.52,1.52,0,0,1-1.67-1.38,1.25,1.25,0,0,1,.13-.57,2.69,2.69,0,0,0-1.59-.4c-1.16,0-2.08.35-2.08,1.29s1,1.33,2.43,1.76c2.13.65,4.4,1.67,4.4,4.18,0,2.29-2,3.78-5.48,3.78-2.7,0-5.15-1.22-5.15-3.11A1.75,1.75,0,0,1,65,15.59a1.54,1.54,0,0,1,1.64,1.51A.68.68,0,0,1,66.54,17.48Z"/><path d="M80.78,17.64h0a1,1,0,0,1,.65.91v.61a1,1,0,0,1-1,1H77.71a1,1,0,0,1-1-1L77.69,4A1,1,0,0,0,77,3h0a1,1,0,0,1-.65-.91V1.45a1,1,0,0,1,1-1h2.77a1,1,0,0,1,1,1l-.43,7.27A6.45,6.45,0,0,1,84.89,7c2.59,0,4,1.43,4,4.15,0,.4,0,1,0,1.25l-.26,4.31a1,1,0,0,0,.65,1h0a1,1,0,0,1,.66.91v.61a1,1,0,0,1-1,1H86.15a1,1,0,0,1-1-1l.4-6.61c0-.26,0-.59,0-.81,0-1.21-.57-1.7-1.46-1.7a4.63,4.63,0,0,0-3.72,2.11l-.31,4.58A1,1,0,0,0,80.78,17.64Z"/><path d="M92.09,9V8.33A.94.94,0,0,1,93,7.39h2.75a1,1,0,0,1,.94,1l-.54,8.3a.94.94,0,0,0,.62.95h0a.93.93,0,0,1,.63.88v.67a1,1,0,0,1-.94.94H93.74a.94.94,0,0,1-.94-1l.54-8.31a1,1,0,0,0-.63-.94h0A.94.94,0,0,1,92.09,9Zm3.37-9A2.24,2.24,0,0,1,97.7,2.24a2.21,2.21,0,0,1-2.24,2.21,2.19,2.19,0,0,1-2.21-2.21A2.21,2.21,0,0,1,95.46,0Z"/><path d="M99.94,14.16c0-3.86,2.45-7.2,6.63-7.2,4,0,6.15,2.81,6.15,6.39,0,3.86-2.45,7.21-6.63,7.21C102.12,20.56,99.94,17.72,99.94,14.16Zm3.26,0c0,2.18.84,3.77,3,3.77,1.86,0,3.29-1.59,3.29-4.42,0-2-.73-3.83-2.94-3.83S103.2,11.65,103.2,14.14Z"/><path d="M128,17.64h0a1,1,0,0,1,.65.91v.62a1,1,0,0,1-1,1h-2.77a1,1,0,0,1-1-1l.4-6.23c0-.27,0-.61,0-.89,0-1.3-.27-2-1.41-2a3.58,3.58,0,0,0-.8.1,4.11,4.11,0,0,0-3,3.78l-.19,2.8a1,1,0,0,0,.65,1h0a1,1,0,0,1,.65.91v.62a1,1,0,0,1-1,1h-2.77a1,1,0,0,1-1-1l.51-8a.84.84,0,0,0-.55-.84l-.29-.1a.84.84,0,0,1-.55-.79V8.23a.83.83,0,0,1,.83-.84h2.15a.84.84,0,0,1,.8.62h0a.84.84,0,0,0,1.31.45A7,7,0,0,1,123.67,7c2.84,0,4,1.73,4,4.1,0,.42,0,.94,0,1.19l-.3,4.41A1,1,0,0,0,128,17.64Z"/></g></g></svg>